<?xml version="1.0" encoding="UTF-8" standalone="no"?>
<!-- Creator: CorelDRAW 2021 (64-Bit) -->

<svg
   xml:space="preserve"
   width="61.106mm"
   height="56.4298mm"
   version="1.1"
   style="shape-rendering:geometricPrecision; text-rendering:geometricPrecision; image-rendering:optimizeQuality; fill-rule:evenodd; clip-rule:evenodd"
   viewBox="0 0 1527.92 1411"
   id="svg378"
   sodipodi:docname="favicon.svg"
   inkscape:version="1.2.2 (732a01da63, 2022-12-09)"
   xmlns:inkscape="http://www.inkscape.org/namespaces/inkscape"
   xmlns:sodipodi="http://sodipodi.sourceforge.net/DTD/sodipodi-0.dtd"
   xmlns="http://www.w3.org/2000/svg"
   xmlns:svg="http://www.w3.org/2000/svg"><sodipodi:namedview
   id="namedview380"
   pagecolor="#ffffff"
   bordercolor="#000000"
   borderopacity="0.25"
   inkscape:showpageshadow="2"
   inkscape:pageopacity="0.0"
   inkscape:pagecheckerboard="0"
   inkscape:deskcolor="#d1d1d1"
   inkscape:document-units="mm"
   showgrid="false"
   inkscape:zoom="2.4334439"
   inkscape:cx="108.28275"
   inkscape:cy="41.094023"
   inkscape:window-width="1366"
   inkscape:window-height="705"
   inkscape:window-x="-8"
   inkscape:window-y="-8"
   inkscape:window-maximized="1"
   inkscape:current-layer="Capa_x0020_1" />
 <defs
   id="defs361">
  <style
   type="text/css"
   id="style359">
   <![CDATA[
    .fil2 {fill:#0091BA}
    .fil0 {fill:#424242}
    .fil1 {fill:white}
   ]]>
  </style>
 
   
   
   
   
   
   
  </defs>
 <g
   id="Capa_x0020_1"
   inkscape:label="Capa 1">
  <metadata
   id="CorelCorpID_0Corel-Layer" />
  <path
   id="polygon364"
   class="fil0"
   d="M 763.96434 0 L 463.54079 372.68027 L 763.96434 745.36053 L 1064.3879 372.68027 L 763.96434 0 z M 763.96434 241.99279 L 869.31287 372.68027 L 763.96434 503.36774 L 658.61581 372.68027 L 763.96434 241.99279 z " /><path
   class="fil0"
   d="M 394.4,286.9 H 130.04 c -27.83,0 -52.46,-14.38 -66.13,-38.62 L 0.01,135.03 h 430.72 c 23.42,0 44.42,10.04 59.12,28.28 L 861.51,624.37 763.97,745.36 394.41,286.9 Z"
   id="path368" /><path
   class="fil2"
   d="m 294.65,833.35 259.29,298.43 V 898.08 L 130.8,377.05 h 195.64 l 379.37,467.12 v 490.78 c 0,32.04 -19.34,59.92 -49.35,71.13 -30.01,11.22 -62.89,2.86 -83.91,-21.33 L 133.57,879.51 c -26.16,-30.12 -24.58,-75.29 3.63,-103.5 l 119.96,-119.96 107.39,107.39 -69.9,69.9 z"
   id="path370" /><path
   class="fil0"
   d="M 1133.53,286.9 763.96,745.36 666.43,624.37 1038.09,163.31 c 14.7,-18.24 35.69,-28.28 59.12,-28.28 h 430.72 l -63.9,113.25 c -13.67,24.24 -38.31,38.62 -66.14,38.62 z"
   id="path372" /><path
   class="fil2"
   d="m 1233.28,833.35 -69.9,-69.9 107.39,-107.39 119.96,119.96 c 28.21,28.21 29.8,73.38 3.63,103.5 l -438.98,505.24 c -21.01,24.18 -53.9,32.54 -83.91,21.33 -30.01,-11.21 -49.35,-39.09 -49.35,-71.13 V 844.18 l 379.36,-467.12 h 195.64 L 973.99,898.09 v 233.7 l 259.29,-298.43 z"
   id="path374" />
 </g>
</svg>
