<?xml version="1.0" encoding="UTF-8" standalone="no"?>
<!-- Creator: CorelDRAW 2021 (64-Bit) -->

<svg
   xml:space="preserve"
   width="167.89011mm"
   height="167.89011mm"
   version="1.1"
   style="clip-rule:evenodd;fill-rule:evenodd;image-rendering:optimizeQuality;shape-rendering:geometricPrecision;text-rendering:geometricPrecision"
   viewBox="0 0 16789.011 16789.011"
   id="svg576"
   sodipodi:docname="wapp.svg"
   inkscape:version="1.2.2 (732a01da63, 2022-12-09)"
   xmlns:inkscape="http://www.inkscape.org/namespaces/inkscape"
   xmlns:sodipodi="http://sodipodi.sourceforge.net/DTD/sodipodi-0.dtd"
   xmlns="http://www.w3.org/2000/svg"
   xmlns:svg="http://www.w3.org/2000/svg"><sodipodi:namedview
   id="namedview578"
   pagecolor="#ffffff"
   bordercolor="#000000"
   borderopacity="0.25"
   inkscape:showpageshadow="2"
   inkscape:pageopacity="0.0"
   inkscape:pagecheckerboard="0"
   inkscape:deskcolor="#d1d1d1"
   inkscape:document-units="mm"
   showgrid="false"
   inkscape:zoom="0.44186308"
   inkscape:cx="316.84023"
   inkscape:cy="316.84023"
   inkscape:window-width="1366"
   inkscape:window-height="705"
   inkscape:window-x="-8"
   inkscape:window-y="-8"
   inkscape:window-maximized="1"
   inkscape:current-layer="Capa_x0020_1" />
 <defs
   id="defs555">
  <style
   type="text/css"
   id="style553">
   <![CDATA[
    .fil0 {fill:#00A859}
   ]]>
  </style>
 </defs>
 <g
   id="Capa_x0020_1"
   inkscape:label="Capa 1"
   inkscape:groupmode="layer"
   transform="translate(-2098.37,-6456.03)">
  <metadata
   id="CorelCorpID_0Corel-Layer" />
  <path
   class="fil0"
   d="m 4147.73,6456.03 h 12690.29 c 1127.15,0 2049.36,922.21 2049.36,2049.36 v 12690.29 c 0,1127.15 -922.21,2049.36 -2049.36,2049.36 H 4147.73 c -1127.15,0 -2049.36,-922.21 -2049.36,-2049.36 V 8505.39 c 0,-1127.15 922.21,-2049.36 2049.36,-2049.36 z m 9507.33,9375.07 c -25.61,-12.3 -984.2,-484.34 -1154.54,-545.64 -69.55,-24.98 -144.05,-49.36 -223.28,-49.36 -129.44,0 -238.17,64.51 -322.87,191.22 -95.76,142.33 -385.63,481.18 -475.2,582.4 -11.7,13.37 -27.66,29.32 -37.22,29.32 -8.58,0 -156.94,-61.08 -201.84,-80.6 -1028.31,-446.67 -1808.84,-1520.84 -1915.87,-1701.97 -15.28,-26.04 -15.92,-37.87 -16.05,-37.87 3.75,-13.79 38.33,-48.46 56.17,-66.34 52.22,-51.66 108.79,-119.75 163.51,-185.62 25.92,-31.21 51.88,-62.46 77.37,-91.92 79.41,-92.38 114.75,-164.1 155.74,-247.17 l 21.47,-43.17 c 100.07,-198.81 14.61,-366.59 -13.02,-420.76 -22.67,-45.35 -427.43,-1022.21 -470.45,-1124.84 -103.49,-247.65 -240.23,-362.96 -430.25,-362.96 -17.63,0 0,0 -73.95,3.12 -90.04,3.8 -580.34,68.35 -797.13,205.01 -229.89,144.93 -618.81,606.94 -618.81,1419.44 0,731.26 464.06,1421.72 663.3,1684.31 4.95,6.62 14.04,20.07 27.23,39.36 763.02,1114.33 1714.23,1940.16 2678.51,2325.36 928.32,370.82 1367.92,413.68 1617.83,413.68 0.04,0 0.04,0 0.04,0 105.03,0 189.09,-8.24 263.25,-15.54 l 47.04,-4.48 c 320.7,-28.44 1025.45,-393.62 1185.76,-839.1 126.27,-350.88 159.57,-734.25 75.56,-873.38 -57.56,-94.63 -156.74,-142.22 -282.3,-202.5 z M 10616.72,8275.52 c -3561.16,0 -6458.36,2875.44 -6458.36,6409.81 0,1143.15 305.92,2262.14 885.46,3241.48 L 3934.57,21198.9 c -20.66,61 -5.3,128.45 39.82,174.39 32.58,33.26 76.77,51.19 121.89,51.19 17.3,0 34.72,-2.61 51.7,-8.02 l 3411.91,-1084.21 c 933.66,498.85 1988.9,762.18 3056.87,762.18 3560.81,0.05 6457.72,-2875.09 6457.72,-6409.1 0,-3534.37 -2896.91,-6409.81 -6457.76,-6409.81 z m 0,11483.73 c -1004.91,0 -1978.23,-290.17 -2814.9,-839.18 -28.13,-18.48 -60.79,-27.96 -93.67,-27.96 -17.37,0 -34.79,2.65 -51.75,8.02 l -1709.15,543.3 551.75,-1627.78 c 17.84,-52.68 8.92,-110.79 -23.96,-155.7 -637.13,-870.56 -973.91,-1899.13 -973.91,-2974.61 0,-2798.12 2294.84,-5074.6 5115.54,-5074.6 2820.36,0 5114.94,2276.48 5114.94,5074.6 0.06,2797.78 -2294.48,5073.91 -5114.89,5073.91 z"
   id="path558"
   style="fill:#ffffff" />
  <g
   id="g5">
  </g>
  <g
   id="g7">
  </g>
  <g
   id="g9">
  </g>
  <g
   id="g11">
  </g>
  <g
   id="g13">
  </g>
  <g
   id="g15">
  </g>
  <g
   id="g17">
  </g>
  <g
   id="g19">
  </g>
  <g
   id="g21">
  </g>
  <g
   id="g23">
  </g>
  <g
   id="g25">
  </g>
  <g
   id="g27">
  </g>
  <g
   id="g29">
  </g>
  <g
   id="g31">
  </g>
  <g
   id="g33">
  </g>
 </g>
</svg>
